<?xml version="1.0" encoding="UTF-8"?>
<svg width="83.598mm" height="79.798mm" version="1.1" viewBox="0 0 83.598 79.798" xml:space="preserve" xmlns="http://www.w3.org/2000/svg"><path d="m22.293 79.75c-4.6726-0.37056-9.1758-2.1676-13.173-5.2566-1.5313-1.1834-3.8132-3.6278-4.9325-5.2839-1.6851-2.4932-3.1695-5.9705-3.7201-8.7145-0.22735-1.1331-0.46721-3.2942-0.4672-4.2093l1e-5 -0.80656h14.27l0.0675 0.65865c0.17744 1.732 0.74093 3.3869 1.5984 4.6944 1.3032 1.9869 3.2881 3.5178 5.4454 4.1998 1.4981 0.47361 3.8917 0.50265 5.6092 0.06805 0.89755-0.22711 2.527-1.0549 3.4187-1.7367 1.833-1.4016 3.2092-3.5312 3.7281-5.7688l0.21437-0.92453v-42.078h-22.8v-14.592h60.393v14.592l-12.134 5.98e-4c-12.99 6.39e-4 -13.128 0.0054-14.769 0.51108-0.94052 0.28979-2.6748 1.1872-3.5054 1.8139-1.3577 1.0244-2.7358 2.7515-3.447 4.3201-0.57434 1.2667-0.89522 2.8335-0.96845 4.7288-0.047 1.2173-0.0337 1.6973 0.0471 1.6973 0.062 0 0.14177-0.171 0.17733-0.37999 0.54955-3.2307 2.096-5.8123 4.5998-7.6787 1.8164-1.354 4.0993-2.1758 6.0443-2.1758h0.75578l-0.0318 20.089c-0.0287 18.126-0.0482 20.188-0.19969 21.107-0.96857 5.8745-3.374 10.625-7.2844 14.386-3.7447 3.6018-8.7177 6.0193-13.631 6.6263-1.2051 0.14888-4.0782 0.20976-5.3055 0.11243zm34.632-6e-3c-3.8785-0.32295-7.8395-1.6582-11.001-3.7083-0.79031-0.51254-2.1486-1.5451-2.1486-1.6334 0-0.02203 0.32824-0.40181 0.72941-0.84396 1.3312-1.4671 3.1662-4.1472 4.0876-5.9701 0.68632-1.3578 1.4912-3.441 1.9185-4.9652 0.13279-0.47372 0.28186-0.96894 0.33126-1.1005l0.0898-0.23916 0.15678 0.23926c0.0862 0.1316 0.30603 0.53561 0.48845 0.89781 1.2272 2.4366 3.3196 4.8314 5.4891 6.2826 1.8116 1.2118 4.0852 2.1579 6.3673 2.6496 0.93438 0.20133 1.3602 0.22972 3.4959 0.23307 2.5952 0.0041 3.1488-0.06127 5.2081-0.61473 3.0059-0.80787 6.4629-2.7562 8.475-4.7766 0.79749-0.80075 0.80048-0.68248 0.0199 0.78585-1.6859 3.1713-3.9328 5.7565-7.0151 8.0714-3.1089 2.3348-7.1956 4.0125-11.045 4.5341-1.4378 0.19484-4.259 0.2739-5.6476 0.15826zm7.117-11.193c-0.64092-0.1381-1.4379-0.33379-1.771-0.43486l-0.60575-0.18377 2.0244 0.0054c2.2436 0.0059 3.5335-0.18133 5.1605-0.74923 2.1252-0.74182 3.5569-1.6178 5.1839-3.1718 2.4162-2.3077 3.8084-5.0399 4.247-8.3347 0.12532-0.94136 0.14851-3.7965 0.1492-18.366l8.2e-4 -17.252h5.1679v16.904c0 18.002 0.0228 17.043-0.4678 19.676-0.33438 1.7949-1.4468 4.2112-2.6541 5.7649-2.0175 2.5964-5.1894 4.7934-8.2272 5.6986-1.655 0.49316-2.6117 0.62276-4.8639 0.65893-2.0135 0.03234-2.267 0.01595-3.3439-0.2161z" fill="#333"/></svg>
